<svg xmlns="http://www.w3.org/2000/svg" xmlns:xlink="http://www.w3.org/1999/xlink" viewBox="0 0 216.45 183.2"><defs><style>.cls-1{fill:url(#Gradiente_sem_nome_8);}</style><linearGradient id="Gradiente_sem_nome_8" x1="-238.71" y1="432.14" x2="377.14" y2="-241.01" gradientUnits="userSpaceOnUse"><stop offset="0.33" stop-color="#153f3d"/><stop offset="0.43" stop-color="#137f57"/><stop offset="0.53" stop-color="#11b66d"/><stop offset="0.61" stop-color="#10de7d"/><stop offset="0.68" stop-color="#0ff686"/><stop offset="0.72" stop-color="#0fff8a"/></linearGradient></defs><g id="Camada_2" data-name="Camada 2"><g id="Camada_1-2" data-name="Camada 1"><path class="cls-1" d="M216.45,52.87A52.56,52.56,0,0,1,201,90.28L108,183.2,64.88,140.05l19.54-19.53L108,144.14l27.86-27.87L112.31,92.68l19.54-19.53,23.59,23.59,26-26A25.28,25.28,0,1,0,145.68,35L90.28,90.41a52.9,52.9,0,1,1,0-74.81L70.75,35.13a25.28,25.28,0,1,0,0,35.75l55.4-55.41h0a52.9,52.9,0,0,1,90.3,37.4Z"/></g></g></svg>