<svg width="58" height="58" viewBox="0 0 58 58" fill="none" xmlns="http://www.w3.org/2000/svg">
<g id="Group 214">
<path id="Vector" d="M47.6538 0H9.39096C4.20448 0 0 4.21234 0 9.40851V47.7429C0 52.9391 4.20448 57.1514 9.39096 57.1514H47.6538C52.8403 57.1514 57.0448 52.9391 57.0448 47.7429V9.40851C57.0448 4.21234 52.8403 0 47.6538 0Z" fill="url(#paint0_linear_2_83)"/>
<path id="Vector_2" d="M41.3127 23.9901C41.3127 25.6617 40.6636 27.2374 39.4819 28.4213L28.4974 39.4264L23.3962 34.3157L25.7055 32.0021L28.4974 34.7993L31.7928 31.4977L29.005 28.7048L31.3143 26.3912L34.102 29.1842L37.1727 26.1077C37.7386 25.5408 38.0465 24.7905 38.0465 23.9901C38.0465 23.1897 37.7344 22.4394 37.1727 21.8725C36.0077 20.7053 34.1145 20.7053 32.9495 21.8725L26.4003 28.4338C25.2187 29.6177 23.65 30.268 21.9774 30.268C20.3047 30.268 18.7361 29.6177 17.5544 28.4338C15.1162 25.991 15.1162 22.0184 17.5544 19.5756C19.9927 17.1328 23.9579 17.1328 26.3962 19.5756L24.0869 21.8891C22.9219 20.7219 21.0287 20.7219 19.8637 21.8891C18.6987 23.0563 18.6987 24.9572 19.8637 26.1244C20.4296 26.6914 21.1785 26.9998 21.9774 26.9998C22.7763 26.9998 23.5252 26.6872 24.0911 26.1244L30.6402 19.5631C33.0785 17.1203 37.0437 17.1203 39.4819 19.5631C40.6636 20.7469 41.3127 22.3185 41.3127 23.9943V23.9901Z" fill="white"/>
</g>
<defs>
<linearGradient id="paint0_linear_2_83" x1="-106.176" y1="176.081" x2="134.813" y2="-86.8379" gradientUnits="userSpaceOnUse">
<stop offset="0.33" stop-color="#153F3D"/>
<stop offset="0.43" stop-color="#127F56"/>
<stop offset="0.53" stop-color="#11B66C"/>
<stop offset="0.61" stop-color="#10DD7C"/>
<stop offset="0.68" stop-color="#0FF686"/>
<stop offset="0.72" stop-color="#0FFF8A"/>
</linearGradient>
</defs>
</svg>
