<svg xmlns="http://www.w3.org/2000/svg" viewBox="0 0 237.97 151.01"><defs><style>.cls-1,.cls-2{fill:#fff;}.cls-2{font-size:12.06px;font-family:Franie-Regular, Franie;}</style></defs><g id="Camada_2" data-name="Camada 2"><g id="Camada_1-2" data-name="Camada 1"><path class="cls-1" d="M63.53,84.25c-3.61,10-12.84,16-23.81,16s-20.3-6-23.71-16H1.33c4.3,17.23,18.84,28.45,38.39,28.45,19.92,0,33.78-11.18,38.69-28.45ZM40.07,33.48C16.62,33.48,0,49.63,0,73.21A45,45,0,0,0,.25,78H79.56C81.68,52.1,64.83,33.48,40.07,33.48Zm-24.87,33c2.48-12.62,12.26-20.63,25-20.63C52.1,45.86,62,53.17,64.6,66.37Z"/><path class="cls-1" d="M137.9,1.43,118.1,26.77,98.41,1.43H81.92l27.94,36.78L79.56,78h16.5l22-28.52,8.26-11.31,28-36.78ZM135,49.52H118.1L140.27,78h16.5Z"/><path class="cls-1" d="M198.27,49.52c-12,0-21.69,5.06-27.7,13.55V49.52h-13.8V151h13.8V115.29c6,8.37,15.67,13.44,27.7,13.44,21.45,0,37.6-16,37.6-39.61S219.72,49.52,198.27,49.52Zm-2.36,66.83c-15.21,0-25.34-11-25.34-27.23s10.13-27.23,25.34-27.23S221.6,73,221.6,89.12,211,116.35,195.91,116.35Z"/><text class="cls-2" transform="translate(156.77 11.04)">Saúde <tspan x="0" y="14.47">Empreende</tspan><tspan x="0" y="28.94">Experience</tspan></text></g></g></svg>