<svg width="220" height="84" viewBox="0 0 220 84" fill="none" xmlns="http://www.w3.org/2000/svg">
<g id="Camada_1" clip-path="url(#clip0_22_2)">
<g id="Group">
<path id="Vector" d="M53.0225 26.6967C53.0225 30.1652 51.6796 33.4234 49.2247 35.8724L26.4589 58.6802L15.8837 48.0961L20.6677 43.3033L26.4484 49.1051L33.2781 42.2628L27.4975 36.4715L32.2815 31.6787L38.0621 37.47L44.4302 31.0901C45.6053 29.9129 46.2452 28.3574 46.2452 26.7072C46.2452 25.0571 45.6053 23.491 44.4302 22.3243C42.0173 19.9069 38.0831 19.9069 35.6701 22.3243L22.0945 35.9249C19.6501 38.3739 16.3873 39.7297 12.9252 39.7297C9.46315 39.7297 6.21088 38.3844 3.76644 35.9249C-1.29031 30.8589 -1.29031 22.6291 3.76644 17.5631C8.82319 12.497 17.0378 12.497 22.0945 17.5631L17.3105 22.3559C14.8976 19.9385 10.9634 19.9385 8.55042 22.3559C6.13744 24.7733 6.13744 28.7147 8.55042 31.1321C9.71494 32.3093 11.2781 32.9505 12.9252 32.9505C14.5724 32.9505 16.1355 32.3093 17.3001 31.1321L30.8756 17.5315C35.9324 12.4655 44.147 12.4655 49.2037 17.5315C51.6482 19.9805 53.0015 23.2493 53.0015 26.7072L53.0225 26.6967Z" fill="#0FFF92"/>
<g id="Group_2">
<path id="Vector_2" d="M76.5016 26.5285C76.3862 26.1081 76.2394 25.7403 76.082 25.4249C75.9141 25.1096 75.6623 24.8153 75.3371 24.5421C75.0014 24.2688 74.7181 24.0376 74.4768 23.8484C74.2355 23.6592 73.8684 23.491 73.3962 23.3228C72.9137 23.1547 72.557 23.0285 72.2947 22.9445C72.0429 22.8604 71.6337 22.7553 71.0672 22.6397C70.5007 22.524 70.1125 22.4505 69.8922 22.4189C69.6824 22.3874 69.2837 22.3243 68.7172 22.2297C68.1716 22.1562 67.7205 22.0721 67.3533 21.9985C66.9966 21.9249 66.5875 21.8093 66.1364 21.6622C65.6852 21.515 65.3285 21.3469 65.0663 21.1682C64.804 20.979 64.5732 20.7373 64.3948 20.4324C64.206 20.1276 64.1116 19.7808 64.1116 19.3919C64.1116 18.5511 64.4787 17.8889 65.2131 17.3949C65.9475 16.9114 67.0071 16.6592 68.4129 16.6592C70.5741 16.6592 72.6619 17.1847 74.6762 18.2463L76.0505 15.5766C73.669 14.3679 71.1826 13.7583 68.5913 13.7583C66.1364 13.7583 64.185 14.2523 62.7582 15.2508C61.3209 16.2493 60.6075 17.6787 60.6075 19.5601C60.6075 20.2643 60.7124 20.8949 60.9327 21.4625C61.1426 22.03 61.4678 22.503 61.8979 22.8814C62.3281 23.2598 62.7582 23.5856 63.1988 23.8589C63.6395 24.1321 64.185 24.3529 64.8354 24.5315C65.4859 24.7102 66.0314 24.8363 66.4721 24.9309C66.9127 25.015 67.4478 25.1096 68.0982 25.2042C68.7592 25.2988 69.2732 25.3829 69.6299 25.4565C69.9866 25.53 70.4272 25.6351 70.9518 25.7823C71.4659 25.9294 71.854 26.0871 72.1268 26.2658C72.3891 26.4445 72.6199 26.6862 72.8297 27.0015C73.0395 27.3168 73.134 27.6742 73.134 28.0841C73.134 28.9985 72.7353 29.7237 71.938 30.2388C71.1406 30.7538 70.0705 31.0165 68.7487 31.0165C65.8006 31.0165 63.2932 30.2072 61.2055 28.5886L59.7997 31.2793C60.8278 32.0571 62.0972 32.7087 63.5975 33.2132C65.0977 33.7177 66.7029 33.97 68.392 33.97C70.9098 33.97 72.9137 33.455 74.4139 32.4144C75.9141 31.3739 76.6695 29.8604 76.6695 27.8739C76.6695 27.3904 76.6066 26.9279 76.4911 26.5075L76.5016 26.5285Z" fill="white"/>
<path id="Vector_3" d="M90.8851 19.2448V21.4415C89.5946 19.7598 87.9161 18.9189 85.8283 18.9189C83.7406 18.9189 82.1144 19.6337 80.7716 21.0631C79.4287 22.4925 78.7573 24.3003 78.7573 26.4865C78.7573 28.6727 79.4287 30.4805 80.7611 31.8889C82.0935 33.3078 83.7825 34.012 85.8073 34.012C87.8321 34.012 89.6261 33.1712 90.8956 31.4895V33.6862H94.0219V19.2343H90.8956L90.8851 19.2448ZM89.5842 29.7238C88.7344 30.6171 87.6853 31.0586 86.4368 31.0586C85.1884 31.0586 84.1497 30.6171 83.3314 29.7343C82.4921 28.8724 82.0725 27.7898 82.0725 26.4865C82.0725 25.1832 82.4921 24.0586 83.3314 23.1862C84.1707 22.3138 85.2093 21.8829 86.4578 21.8829C87.7062 21.8829 88.7449 22.3244 89.5842 23.1967C90.4235 24.0796 90.8431 25.1517 90.8431 26.4234C90.8431 27.6952 90.4235 28.8304 89.5737 29.7238H89.5842Z" fill="white"/>
<path id="Vector_4" d="M104.167 13.7478L103.023 17.3424H106.297L107.954 13.7478H104.156H104.167ZM108.237 19.2448V26.8334C108.237 28.0421 107.87 29.0511 107.125 29.8499C106.38 30.6487 105.489 31.0481 104.44 31.0481C103.485 31.0481 102.698 30.7117 102.09 30.0391C101.471 29.3664 101.166 28.494 101.166 27.4114V19.2343H97.7987V27.6742C97.7987 29.6081 98.3128 31.1427 99.3514 32.2778C100.39 33.4129 101.754 33.9805 103.443 33.9805C105.531 33.9805 107.167 33.1817 108.353 31.5736V33.6862H111.574V19.2343H108.237V19.2448Z" fill="white"/>
<path id="Vector_5" d="M126.608 13.7478V21.3259C125.317 19.7598 123.659 18.982 121.635 18.982C119.61 18.982 117.963 19.6967 116.63 21.1262C115.288 22.5556 114.616 24.3424 114.616 26.4865C114.616 28.6307 115.277 30.428 116.609 31.8679C117.931 33.3078 119.578 34.0225 121.551 34.0225C123.67 34.0225 125.38 33.2237 126.67 31.6156V33.6967H129.912V13.7478H126.608ZM125.422 29.7658C124.572 30.6487 123.513 31.0796 122.243 31.0796C120.974 31.0796 119.988 30.6382 119.169 29.7658C118.351 28.8829 117.942 27.7898 117.942 26.4865C117.942 25.1832 118.351 24.1216 119.169 23.2493C119.988 22.3769 121.016 21.946 122.275 21.946C123.534 21.946 124.572 22.3769 125.422 23.2493C126.272 24.1216 126.691 25.1937 126.691 26.4865C126.691 27.7793 126.272 28.8934 125.422 29.7658Z" fill="white"/>
<path id="Vector_6" d="M148.072 26.1081C148.072 24.0166 147.38 22.3033 145.985 20.9685C144.589 19.6337 142.806 18.961 140.645 18.961C138.483 18.961 136.564 19.6652 135.116 21.0736C133.668 22.482 132.955 24.2898 132.955 26.497C132.955 28.7042 133.668 30.5121 135.095 31.9205C136.522 33.3289 138.368 34.0331 140.655 34.0331C142.218 34.0331 143.603 33.6967 144.81 33.0241C146.016 32.3514 146.866 31.458 147.359 30.3439L144.726 29.1667C144.359 29.8499 143.813 30.3964 143.1 30.7958C142.386 31.1952 141.578 31.3949 140.687 31.3949C139.48 31.3949 138.463 31.0376 137.644 30.3124C136.826 29.5871 136.333 28.6412 136.186 27.4745H148.03C148.072 27.0015 148.093 26.5601 148.093 26.1292L148.072 26.1081ZM136.196 25.2568C136.396 24.1637 136.889 23.2598 137.707 22.5661C138.515 21.8619 139.48 21.5151 140.592 21.5151C141.704 21.5151 142.68 21.8619 143.477 22.5556C144.264 23.2493 144.736 24.1532 144.894 25.2673H136.207L136.196 25.2568Z" fill="white"/>
<path id="Vector_7" d="M64.6571 55.7267V50.2508H74.865V47.3499H64.6571V42.0421H75.2112V39.0781H61.3209V58.6802H75.5365V55.7162H64.6571V55.7267Z" fill="white"/>
<path id="Vector_8" d="M100.453 45.5421C99.4039 44.5015 98.0191 43.976 96.2985 43.976C95.2494 43.976 94.2737 44.1862 93.3715 44.6172C92.4797 45.0481 91.7348 45.6367 91.1473 46.4039C90.2136 44.7853 88.7029 43.976 86.6151 43.976C85.6814 43.976 84.8002 44.1757 83.9819 44.5751C83.1636 44.9745 82.4921 45.5211 81.9676 46.2042V44.2388H78.7468V58.6907H82.1144V51.0181C82.1144 49.7673 82.4502 48.7688 83.1216 48.0331C83.793 47.2868 84.6428 46.919 85.6814 46.919C86.6151 46.919 87.3495 47.2448 87.8951 47.8859C88.4301 48.5271 88.7029 49.3889 88.7029 50.461V58.6907H92.0915V50.955C92.0915 49.7253 92.4168 48.7478 93.0672 48.012C93.7177 47.2763 94.557 46.9084 95.5641 46.9084C96.4769 46.9084 97.2217 47.2133 97.7987 47.8124C98.3758 48.422 98.659 49.2313 98.659 50.2403V58.6802H102.027V49.6202C102.027 47.9385 101.502 46.5721 100.443 45.5316L100.453 45.5421Z" fill="white"/>
<path id="Vector_9" d="M119.054 46.1307C117.732 44.6907 116.074 43.976 114.113 43.976C112.004 43.976 110.315 44.7748 109.024 46.3829V44.2388H105.751V64.5766H109.087V56.6937C110.336 58.2388 112.014 59.006 114.123 59.006C116.095 59.006 117.742 58.2913 119.064 56.8619C120.386 55.4325 121.058 53.6457 121.058 51.5015C121.058 49.3574 120.397 47.5601 119.064 46.1202L119.054 46.1307ZM116.494 54.7913C115.665 55.6742 114.637 56.1051 113.41 56.1051C112.182 56.1051 111.081 55.6637 110.231 54.7913C109.381 53.9084 108.961 52.8154 108.961 51.512C108.961 50.2087 109.381 49.1157 110.231 48.2433C111.081 47.3709 112.13 46.94 113.378 46.94C114.627 46.94 115.665 47.3814 116.494 48.2538C117.323 49.1367 117.742 50.2193 117.742 51.512C117.742 52.8048 117.323 53.919 116.494 54.7913Z" fill="white"/>
<path id="Vector_10" d="M131.601 43.9445C129.671 43.9445 128.244 44.7012 127.331 46.2042V44.2388H124.111V58.6907H127.415V51.3018C127.415 50.03 127.762 49.0105 128.464 48.2538C129.167 47.497 130.112 47.1081 131.297 47.1081C132.021 47.1081 132.713 47.2237 133.374 47.455L133.406 44.2072C132.818 44.0285 132.22 43.9445 131.591 43.9445H131.601Z" fill="white"/>
<path id="Vector_11" d="M149.741 51.1021C149.741 49.0105 149.048 47.2973 147.653 45.9625C146.258 44.6277 144.474 43.955 142.313 43.955C140.152 43.955 138.232 44.6592 136.784 46.0676C135.336 47.476 134.623 49.2838 134.623 51.491C134.623 53.6982 135.336 55.506 136.763 56.9144C138.19 58.3229 140.036 59.0271 142.323 59.0271C143.887 59.0271 145.271 58.6907 146.478 58.0181C147.684 57.3454 148.534 56.452 149.027 55.3379L146.394 54.1607C146.027 54.8439 145.481 55.3904 144.768 55.7898C144.054 56.1892 143.247 56.3889 142.355 56.3889C141.148 56.3889 140.131 56.0316 139.312 55.3063C138.494 54.5811 138.001 53.6352 137.854 52.458H149.699C149.741 51.985 149.751 51.5436 149.751 51.1126L149.741 51.1021ZM137.865 50.2508C138.064 49.1577 138.557 48.2538 139.375 47.5601C140.183 46.8559 141.148 46.509 142.26 46.509C143.372 46.509 144.348 46.8559 145.145 47.5496C145.932 48.2433 146.404 49.1472 146.562 50.2613H137.875L137.865 50.2508Z" fill="white"/>
<path id="Vector_12" d="M166.946 51.1021C166.946 49.0105 166.254 47.2973 164.858 45.9625C163.463 44.6277 161.68 43.955 159.518 43.955C157.357 43.955 155.437 44.6592 153.989 46.0676C152.542 47.476 151.828 49.2838 151.828 51.491C151.828 53.6982 152.542 55.506 153.969 56.9144C155.395 58.3229 157.242 59.0271 159.529 59.0271C161.092 59.0271 162.477 58.6907 163.683 58.0181C164.89 57.3454 165.74 56.452 166.233 55.3379L163.599 54.1607C163.232 54.8439 162.687 55.3904 161.973 55.7898C161.26 56.1892 160.452 56.3889 159.56 56.3889C158.354 56.3889 157.336 56.0316 156.518 55.3063C155.7 54.5811 155.206 53.6352 155.06 52.458H166.904C166.946 51.985 166.967 51.5436 166.967 51.1126L166.946 51.1021ZM155.07 50.2508C155.269 49.1577 155.762 48.2538 156.581 47.5601C157.389 46.8559 158.354 46.509 159.466 46.509C160.578 46.509 161.554 46.8559 162.351 47.5496C163.138 48.2433 163.61 49.1472 163.767 50.2613H155.081L155.07 50.2508Z" fill="white"/>
<path id="Vector_13" d="M182.106 45.6157C181.025 44.5226 179.63 43.976 177.941 43.976C175.916 43.976 174.321 44.7538 173.178 46.3199V44.2388H169.957V58.6907H173.325V51.2493C173.325 49.9985 173.681 48.9685 174.395 48.1382C175.108 47.3184 176 46.9084 177.07 46.9084C178.025 46.9084 178.812 47.2553 179.441 47.9385C180.06 48.6217 180.375 49.494 180.375 50.5451V58.6907H183.742V49.8093C183.742 48.1066 183.197 46.7193 182.116 45.6157H182.106Z" fill="white"/>
<path id="Vector_14" d="M198.535 38.0586V46.3199C197.245 44.7538 195.587 43.976 193.562 43.976C191.537 43.976 189.89 44.6907 188.558 46.1202C187.215 47.5496 186.544 49.3364 186.544 51.4805C186.544 53.6247 187.205 55.422 188.537 56.8619C189.859 58.3018 191.516 59.0166 193.478 59.0166C195.608 59.0166 197.308 58.2178 198.598 56.6096V58.6907H201.85V38.0586H198.545H198.535ZM197.349 54.7598C196.5 55.6427 195.44 56.0736 194.171 56.0736C192.901 56.0736 191.915 55.6322 191.097 54.7598C190.278 53.8769 189.869 52.7838 189.869 51.4805C189.869 50.1772 190.278 49.1157 191.097 48.2433C191.915 47.3709 192.954 46.94 194.202 46.94C195.451 46.94 196.5 47.3709 197.349 48.2433C198.199 49.1157 198.619 50.1877 198.619 51.4805C198.619 52.7733 198.199 53.8874 197.349 54.7598Z" fill="white"/>
<path id="Vector_15" d="M220 51.1021C220 49.0105 219.308 47.2973 217.912 45.9625C216.517 44.6277 214.733 43.955 212.572 43.955C210.411 43.955 208.491 44.6592 207.043 46.0676C205.596 47.476 204.882 49.2838 204.882 51.491C204.882 53.6982 205.596 55.506 207.022 56.9144C208.449 58.3229 210.296 59.0271 212.583 59.0271C214.146 59.0271 215.531 58.6907 216.737 58.0181C217.944 57.3454 218.794 56.452 219.287 55.3379L216.653 54.1607C216.286 54.8439 215.741 55.3904 215.027 55.7898C214.314 56.1892 213.506 56.3889 212.614 56.3889C211.408 56.3889 210.39 56.0316 209.572 55.3063C208.753 54.5811 208.26 53.6352 208.113 52.458H219.958C220 51.985 220.021 51.5436 220.021 51.1126L220 51.1021ZM208.124 50.2508C208.323 49.1577 208.816 48.2538 209.635 47.5601C210.443 46.8559 211.408 46.509 212.52 46.509C213.632 46.509 214.608 46.8559 215.405 47.5496C216.192 48.2433 216.664 49.1472 216.821 50.2613H208.134L208.124 50.2508Z" fill="white"/>
</g>
</g>
<g id="Group_3">
<path id="Vector_16" d="M62.1917 72.985H68.7067V74.8559H64.3319V76.3273H68.0458V78.2087H64.3319V79.9009H68.7067V81.7823H62.1917V72.9745V72.985Z" fill="white"/>
<path id="Vector_17" d="M75.2008 78.0826L77.6977 74.6351H75.2113L73.9523 76.3904L72.6934 74.6351H70.207L71.2246 76.0225C71.2246 76.0225 71.7492 76.7372 72.3891 77.6096L72.5885 77.8724C73.0501 78.5135 73.5641 79.1967 73.9838 79.7643L74.4979 80.4895C74.5818 80.6156 74.6657 80.7102 74.7182 80.7943C74.8126 80.9309 74.8755 81.0045 74.8755 81.0045L75.4421 81.7823H77.9285L75.2113 78.0721L75.2008 78.0826ZM71.2561 79.8063L70.0181 81.7928H72.5045L73.9838 79.8063H71.2561Z" fill="white"/>
<path id="Vector_18" d="M79.3867 74.6351H81.38V75.3919C81.8941 74.8348 82.618 74.509 83.4888 74.509C85.3667 74.509 86.8145 76.0225 86.8145 78.2087C86.8145 80.3949 85.3667 81.9084 83.4888 81.9084C82.66 81.9084 81.978 81.6246 81.4745 81.1201V83.9895H79.3867V74.6351ZM83.1111 79.9009C84.0553 79.9009 84.7162 79.2177 84.7162 78.2087C84.7162 77.1997 84.0553 76.5375 83.1111 76.5375C82.1669 76.5375 81.5059 77.2102 81.5059 78.2087C81.5059 79.2072 82.1774 79.9009 83.1111 79.9009Z" fill="white"/>
<path id="Vector_19" d="M91.9237 74.5195C89.7101 74.5195 88.1783 76.0225 88.1783 78.2297C88.1783 78.4189 88.1888 78.5976 88.2098 78.7763H95.6166C95.8894 76.3799 94.3472 74.5195 91.9237 74.5195ZM90.329 77.4625C90.5808 76.7793 91.1473 76.3484 91.9237 76.3484C92.7 76.3484 93.2561 76.7793 93.4974 77.452H90.329V77.4625ZM91.9027 80.1321C91.2732 80.1321 90.7067 79.8273 90.413 79.3018H88.3042C88.7134 80.8994 90.0563 81.9294 91.8398 81.9294C93.6233 81.9294 95.0081 80.9309 95.5012 79.3228H93.3715C93.0987 79.8378 92.5322 80.1427 91.9132 80.1427L91.9027 80.1321Z" fill="white"/>
<path id="Vector_20" d="M110.661 74.5195C108.447 74.5195 106.916 76.0225 106.916 78.2297C106.916 78.4189 106.926 78.5976 106.947 78.7763H114.354C114.627 76.3799 113.084 74.5195 110.661 74.5195ZM109.066 77.4625C109.318 76.7793 109.885 76.3484 110.661 76.3484C111.437 76.3484 111.993 76.7793 112.235 77.452H109.066V77.4625ZM110.64 80.1321C110.01 80.1321 109.444 79.8273 109.15 79.3018H107.041C107.451 80.8994 108.794 81.9294 110.577 81.9294C112.361 81.9294 113.745 80.9309 114.238 79.3228H112.109C111.836 79.8378 111.269 80.1427 110.65 80.1427L110.64 80.1321Z" fill="white"/>
<path id="Vector_21" d="M97.4526 74.6351H99.4984V75.6336C99.7711 75.1607 100.464 74.5616 101.387 74.5195V76.6427C100.285 76.6427 99.5928 77.3363 99.5928 78.4399V81.7823H97.4526V74.6246V74.6351Z" fill="white"/>
<path id="Vector_22" d="M102.96 72.985H105.101V74.9084H102.96V72.985ZM102.96 75.8123H105.101V81.7928H102.96V75.8123Z" fill="white"/>
<path id="Vector_23" d="M116.179 74.6351H118.267V75.5285C118.487 75.0451 119.148 74.5195 120.197 74.5195C121.824 74.5195 123.03 75.7703 123.03 77.5886V81.7928H120.9V77.7673C120.9 76.979 120.376 76.4324 119.599 76.4324C118.823 76.4324 118.309 76.9685 118.309 77.7673V81.7928H116.169V74.6351H116.179Z" fill="white"/>
<path id="Vector_24" d="M124.625 78.2297C124.625 76.0225 126.167 74.5195 128.328 74.5195C130.374 74.5195 131.727 75.8754 132.021 77.7252H129.891C129.702 77.0736 129.136 76.527 128.339 76.527C127.426 76.527 126.744 77.2312 126.744 78.2297C126.744 79.2282 127.436 79.9324 128.339 79.9324C129.02 79.9324 129.598 79.5541 129.828 78.9339H132C131.633 80.6997 130.3 81.9189 128.307 81.9189C126.156 81.9189 124.614 80.4475 124.614 78.2297H124.625Z" fill="white"/>
<path id="Vector_25" d="M137.141 74.5195C134.927 74.5195 133.395 76.0225 133.395 78.2297C133.395 78.4189 133.406 78.5976 133.427 78.7763H140.834C141.106 76.3799 139.564 74.5195 137.141 74.5195ZM135.546 77.4625C135.798 76.7793 136.364 76.3484 137.141 76.3484C137.917 76.3484 138.473 76.7793 138.714 77.452H135.546V77.4625ZM137.12 80.1321C136.49 80.1321 135.924 79.8273 135.63 79.3018H133.521C133.93 80.8994 135.273 81.9294 137.057 81.9294C138.84 81.9294 140.225 80.9309 140.718 79.3228H138.588C138.316 79.8378 137.749 80.1427 137.13 80.1427L137.12 80.1321Z" fill="white"/>
</g>
<g id="Group_4">
<g id="Group_5">
<path id="Vector_26" d="M144.091 78.4847L146.39 80.7886L147.429 79.7481L145.129 77.4442L144.091 78.4847Z" fill="#0FFF92"/>
<path id="Vector_27" d="M146.393 76.1866L144.093 78.4905L145.132 79.531L147.431 77.2271L146.393 76.1866Z" fill="#0FFF92"/>
</g>
<g id="Group_6">
<path id="Vector_28" d="M58.9716 78.4985L56.6719 76.1945L55.6334 77.235L57.9331 79.5389L58.9716 78.4985Z" fill="#0FFF92"/>
<path id="Vector_29" d="M56.6689 80.7966L58.9686 78.4926L57.9301 77.4521L55.6304 79.7561L56.6689 80.7966Z" fill="#0FFF92"/>
</g>
</g>
</g>
<defs>
<clipPath id="clip0_22_2">
<rect width="220" height="84" fill="white"/>
</clipPath>
</defs>
</svg>
